<svg width="21" height="20" viewBox="0 0 21 20" fill="none" xmlns="http://www.w3.org/2000/svg">
<path d="M11.5 15.5L15 12C15.1833 11.8167 15.3292 11.6 15.4375 11.35C15.5458 11.1 15.6 10.8333 15.6 10.55C15.6 9.98333 15.4 9.5 15 9.1C14.6 8.7 14.1167 8.5 13.55 8.5C13.2333 8.5 12.9208 8.59167 12.6125 8.775C12.3042 8.95833 11.9333 9.26667 11.5 9.7C11 9.23333 10.6083 8.91667 10.325 8.75C10.0417 8.58333 9.75 8.5 9.45 8.5C8.88333 8.5 8.4 8.7 8 9.1C7.6 9.5 7.4 9.98333 7.4 10.55C7.4 10.8333 7.45417 11.1 7.5625 11.35C7.67083 11.6 7.81667 11.8167 8 12L11.5 15.5ZM19.9 12.25L12.75 19.4C12.55 19.6 12.325 19.75 12.075 19.85C11.825 19.95 11.575 20 11.325 20C11.075 20 10.825 19.95 10.575 19.85C10.325 19.75 10.1 19.6 9.9 19.4L1.075 10.575C0.891667 10.3917 0.75 10.1792 0.65 9.9375C0.55 9.69583 0.5 9.44167 0.5 9.175V2C0.5 1.45 0.695833 0.979167 1.0875 0.5875C1.47917 0.195833 1.95 0 2.5 0H9.675C9.94167 0 10.2 0.0541667 10.45 0.1625C10.7 0.270833 10.9167 0.416667 11.1 0.6L19.9 9.425C20.1 9.625 20.2458 9.85 20.3375 10.1C20.4292 10.35 20.475 10.6 20.475 10.85C20.475 11.1 20.4292 11.3458 20.3375 11.5875C20.2458 11.8292 20.1 12.05 19.9 12.25ZM11.325 18L18.475 10.85L9.65 2H2.5V9.15L11.325 18ZM5 6C5.41667 6 5.77083 5.85417 6.0625 5.5625C6.35417 5.27083 6.5 4.91667 6.5 4.5C6.5 4.08333 6.35417 3.72917 6.0625 3.4375C5.77083 3.14583 5.41667 3 5 3C4.58333 3 4.22917 3.14583 3.9375 3.4375C3.64583 3.72917 3.5 4.08333 3.5 4.5C3.5 4.91667 3.64583 5.27083 3.9375 5.5625C4.22917 5.85417 4.58333 6 5 6Z" fill="#990D81"/>
</svg>
